<svg xmlns="http://www.w3.org/2000/svg" version="1.1" xmlns:xlink="http://www.w3.org/1999/xlink" xmlns:svgjs="http://svgjs.dev/svgjs" viewBox="0 0 18.581693950806976 18.655067863853603"><g transform="matrix(1,0,0,1,1.551528127747238,14.973727236106365)"><g><path d=" M 0.3375 0.008999999999999897 L 0.6645 0.008999999999999897 L 1.0035 1.0739999999999998 L 0.7065 1.0739999999999998 L 0.642 0.8654999999999998 L 0.3585 0.8654999999999998 L 0.2955 1.0739999999999998 L -0.003 1.0739999999999998 L 0.3375 0.008999999999999897 M 0.5955 0.6704999999999999 L 0.501 0.2954999999999999 L 0.402 0.6704999999999999 L 0.5955 0.6704999999999999 M 0.990000732421875 0.5324999999999999 Q 0.990000732421875 0.43499999999999983 1.026750732421875 0.34124999999999983 Q 1.063500732421875 0.24749999999999983 1.134000732421875 0.17099999999999982 Q 1.204500732421875 0.0944999999999998 1.305750732421875 0.04874999999999985 Q 1.407000732421875 0.0029999999999998916 1.5345007324218751 0.0029999999999998916 Q 1.6875007324218751 0.0029999999999998916 1.801500732421875 0.06674999999999986 Q 1.915500732421875 0.13049999999999984 1.971000732421875 0.23549999999999982 L 1.747500732421875 0.39449999999999985 Q 1.728000732421875 0.34199999999999986 1.691250732421875 0.3134999999999998 Q 1.654500732421875 0.2849999999999998 1.611750732421875 0.2737499999999998 Q 1.569000732421875 0.26249999999999984 1.528500732421875 0.26249999999999984 Q 1.4655007324218752 0.26249999999999984 1.419750732421875 0.2872499999999998 Q 1.374000732421875 0.31199999999999983 1.344750732421875 0.3524999999999998 Q 1.315500732421875 0.3929999999999998 1.301250732421875 0.4424999999999998 Q 1.287000732421875 0.4919999999999999 1.287000732421875 0.5414999999999999 Q 1.287000732421875 0.5969999999999998 1.303500732421875 0.6479999999999999 Q 1.320000732421875 0.6989999999999998 1.351500732421875 0.7387499999999998 Q 1.383000732421875 0.7784999999999999 1.4287507324218751 0.8009999999999998 Q 1.474500732421875 0.8234999999999999 1.531500732421875 0.8234999999999999 Q 1.572000732421875 0.8234999999999999 1.614000732421875 0.8107499999999999 Q 1.656000732421875 0.7979999999999998 1.690500732421875 0.7694999999999999 Q 1.725000732421875 0.7409999999999999 1.743000732421875 0.6929999999999998 L 1.981500732421875 0.8354999999999998 Q 1.9500007324218749 0.9134999999999999 1.876500732421875 0.9689999999999999 Q 1.803000732421875 1.0244999999999997 1.7100007324218751 1.0537499999999997 Q 1.6170007324218751 1.0829999999999997 1.525500732421875 1.0829999999999997 Q 1.407000732421875 1.0829999999999997 1.308750732421875 1.03575 Q 1.210500732421875 0.9884999999999998 1.139250732421875 0.9097499999999998 Q 1.068000732421875 0.8309999999999998 1.029000732421875 0.7327499999999998 Q 0.990000732421875 0.6344999999999998 0.990000732421875 0.5324999999999999 M 2.9144692382812503 0.2639999999999998 L 2.60846923828125 0.2639999999999998 L 2.60846923828125 1.0739999999999998 L 2.31596923828125 1.0739999999999998 L 2.31596923828125 0.2639999999999998 L 2.00846923828125 0.2639999999999998 L 2.00846923828125 0.008999999999999897 L 2.9144692382812503 0.008999999999999897 L 2.9144692382812503 0.2639999999999998 M 3.169500732421875 0.008999999999999897 L 3.496500732421875 0.008999999999999897 L 3.835500732421875 1.0739999999999998 L 3.538500732421875 1.0739999999999998 L 3.474000732421875 0.8654999999999998 L 3.190500732421875 0.8654999999999998 L 3.127500732421875 1.0739999999999998 L 2.829000732421875 1.0739999999999998 L 3.169500732421875 0.008999999999999897 M 3.427500732421875 0.6704999999999999 L 3.333000732421875 0.2954999999999999 L 3.234000732421875 0.6704999999999999 L 3.427500732421875 0.6704999999999999 M 4.696408447265625 1.0829999999999997 Q 4.574908447265625 1.0829999999999997 4.475908447265625 1.0372499999999998 Q 4.376908447265625 0.9914999999999998 4.305658447265625 0.9142499999999998 Q 4.234408447265625 0.8369999999999999 4.196158447265625 0.7402499999999999 Q 4.157908447265625 0.6434999999999998 4.157908447265625 0.5399999999999998 Q 4.157908447265625 0.4334999999999999 4.198408447265625 0.3374999999999998 Q 4.238908447265625 0.24149999999999983 4.311658447265625 0.16574999999999984 Q 4.384408447265625 0.08999999999999986 4.484158447265625 0.046499999999999764 Q 4.583908447265625 0.0029999999999998916 4.702408447265625 0.0029999999999998916 Q 4.823908447265625 0.0029999999999998916 4.922908447265625 0.04874999999999985 Q 5.021908447265625 0.0944999999999998 5.092408447265625 0.17249999999999988 Q 5.162908447265625 0.25049999999999983 5.201158447265625 0.34724999999999984 Q 5.239408447265625 0.44399999999999984 5.239408447265625 0.5459999999999998 Q 5.239408447265625 0.6509999999999998 5.199658447265625 0.7469999999999999 Q 5.159908447265625 0.8429999999999999 5.087158447265625 0.9187499999999998 Q 5.014408447265625 0.9944999999999998 4.915408447265625 1.0387499999999998 Q 4.816408447265625 1.0829999999999997 4.696408447265625 1.0829999999999997 M 4.454908447265625 0.5429999999999998 Q 4.454908447265625 0.5969999999999998 4.469908447265625 0.6472499999999999 Q 4.484908447265625 0.6974999999999998 4.514908447265625 0.7372499999999998 Q 4.544908447265625 0.7769999999999999 4.590658447265625 0.8002499999999999 Q 4.636408447265625 0.8234999999999999 4.6994084472656255 0.8234999999999999 Q 4.762408447265625 0.8234999999999999 4.808908447265625 0.7994999999999999 Q 4.855408447265625 0.7754999999999999 4.884658447265625 0.7342499999999998 Q 4.913908447265625 0.6929999999999998 4.928158447265625 0.6427499999999998 Q 4.942408447265625 0.5924999999999998 4.942408447265625 0.5399999999999998 Q 4.942408447265625 0.4859999999999999 4.927408447265625 0.4364999999999998 Q 4.912408447265625 0.3869999999999998 4.882408447265625 0.34724999999999984 Q 4.852408447265625 0.3074999999999998 4.805908447265625 0.2849999999999998 Q 4.759408447265625 0.26249999999999984 4.697908447265625 0.26249999999999984 Q 4.634908447265625 0.26249999999999984 4.589158447265625 0.28649999999999987 Q 4.543408447265625 0.3104999999999998 4.513408447265625 0.35024999999999984 Q 4.483408447265625 0.3899999999999998 4.469158447265625 0.4402499999999998 Q 4.454908447265625 0.4904999999999998 4.454908447265625 0.5429999999999998 M 5.363930419921875 1.0739999999999998 L 5.363930419921875 0.008999999999999897 L 5.852930419921875 0.008999999999999897 Q 5.930930419921875 0.008999999999999897 5.996930419921875 0.04049999999999976 Q 6.062930419921875 0.07199999999999984 6.110930419921875 0.12524999999999986 Q 6.158930419921875 0.17849999999999977 6.185180419921875 0.24449999999999983 Q 6.211430419921875 0.3104999999999998 6.211430419921875 0.3779999999999998 Q 6.211430419921875 0.4394999999999998 6.193430419921875 0.49649999999999983 Q 6.1754304199218755 0.5534999999999999 6.140930419921875 0.6007499999999999 Q 6.106430419921875 0.6479999999999999 6.058430419921875 0.6824999999999999 L 6.283430419921875 1.0739999999999998 L 5.962430419921875 1.0739999999999998 L 5.774930419921875 0.7469999999999999 L 5.656430419921875 0.7469999999999999 L 5.656430419921875 1.0739999999999998 L 5.363930419921875 1.0739999999999998 M 5.656430419921875 0.4919999999999999 L 5.840930419921875 0.4919999999999999 Q 5.858930419921875 0.4919999999999999 5.875430419921875 0.4784999999999998 Q 5.891930419921875 0.46499999999999986 5.903180419921875 0.4394999999999998 Q 5.914430419921875 0.4139999999999998 5.914430419921875 0.3779999999999998 Q 5.914430419921875 0.3404999999999998 5.901680419921875 0.31574999999999986 Q 5.888930419921875 0.2909999999999998 5.870180419921875 0.27749999999999986 Q 5.851430419921875 0.2639999999999998 5.833430419921875 0.2639999999999998 L 5.656430419921875 0.2639999999999998 L 5.656430419921875 0.4919999999999999 M 6.823453857421875 1.0815 Q 6.719953857421875 1.0815 6.626203857421875 1.0447499999999998 Q 6.532453857421875 1.0079999999999998 6.460453857421875 0.9367499999999999 Q 6.388453857421875 0.8654999999999998 6.347203857421875 0.7642499999999999 Q 6.305953857421875 0.6629999999999998 6.305953857421875 0.5324999999999999 Q 6.305953857421875 0.4199999999999998 6.347953857421875 0.32399999999999984 Q 6.389953857421875 0.22799999999999987 6.464203857421875 0.15524999999999978 Q 6.538453857421875 0.0824999999999998 6.637453857421875 0.041999999999999815 Q 6.736453857421875 0.0014999999999998348 6.851953857421875 0.0014999999999998348 Q 6.995953857421875 0.0014999999999998348 7.112953857421875 0.06374999999999975 Q 7.229953857421875 0.12599999999999978 7.286953857421875 0.23399999999999987 L 7.069453857421875 0.40049999999999986 Q 7.037953857421875 0.3374999999999998 6.974953857421875 0.2992499999999998 Q 6.911953857421875 0.2609999999999998 6.841453857421875 0.2609999999999998 Q 6.788953857421875 0.2609999999999998 6.745453857421875 0.2819999999999998 Q 6.701953857421875 0.3029999999999998 6.669703857421875 0.3404999999999998 Q 6.637453857421875 0.3779999999999998 6.620203857421875 0.42974999999999985 Q 6.602953857421875 0.4814999999999998 6.602953857421875 0.5429999999999998 Q 6.602953857421875 0.6059999999999999 6.620953857421875 0.6569999999999998 Q 6.638953857421875 0.7079999999999999 6.671203857421875 0.7447499999999998 Q 6.703453857421875 0.7814999999999999 6.748453857421875 0.8017499999999999 Q 6.793453857421875 0.8219999999999998 6.848953857421875 0.8219999999999998 Q 6.919453857421875 0.8219999999999998 6.983953857421875 0.7867499999999998 Q 7.048453857421875 0.7514999999999998 7.100953857421875 0.6869999999999998 L 7.100953857421875 0.9719999999999999 Q 6.980953857421875 1.0815 6.823453857421875 1.0815 M 7.085953857421875 0.7169999999999999 L 6.889453857421875 0.7169999999999999 L 6.889453857421875 0.5069999999999998 L 7.327453857421875 0.5069999999999998 L 7.327453857421875 1.0739999999999998 L 7.085953857421875 1.0739999999999998 L 7.085953857421875 0.7169999999999999 M 7.717474365234375 0.008999999999999897 L 8.044474365234375 0.008999999999999897 L 8.383474365234376 1.0739999999999998 L 8.086474365234375 1.0739999999999998 L 8.021974365234374 0.8654999999999998 L 7.738474365234375 0.8654999999999998 L 7.675474365234375 1.0739999999999998 L 7.376974365234375 1.0739999999999998 L 7.717474365234375 0.008999999999999897 M 7.975474365234375 0.6704999999999999 L 7.880974365234375 0.2954999999999999 L 7.781974365234375 0.6704999999999999 L 7.975474365234375 0.6704999999999999 M 8.764462646484375 0.5504999999999999 L 8.764462646484375 1.0739999999999998 L 8.471962646484375 1.0739999999999998 L 8.471962646484375 0.008999999999999897 L 8.699962646484375 0.008999999999999897 L 9.127462646484375 0.5504999999999999 L 9.127462646484375 0.008999999999999897 L 9.419962646484375 0.008999999999999897 L 9.419962646484375 1.0739999999999998 L 9.187462646484375 1.0739999999999998 L 8.764462646484375 0.5504999999999999 M 9.603005126953125 1.0739999999999998 L 9.603005126953125 0.008999999999999897 L 9.895505126953125 0.008999999999999897 L 9.895505126953125 1.0739999999999998 L 9.603005126953125 1.0739999999999998 M 10.723530029296874 0.3569999999999999 Q 10.723530029296874 0.3569999999999999 10.698030029296875 0.34199999999999986 Q 10.672530029296874 0.32699999999999985 10.630530029296875 0.3082499999999998 Q 10.588530029296875 0.28949999999999987 10.539030029296875 0.27449999999999986 Q 10.489530029296875 0.25949999999999984 10.441530029296874 0.25949999999999984 Q 10.404030029296875 0.25949999999999984 10.380030029296876 0.27149999999999985 Q 10.356030029296875 0.28349999999999986 10.356030029296875 0.31199999999999983 Q 10.356030029296875 0.33899999999999986 10.380030029296876 0.3554999999999998 Q 10.404030029296875 0.3719999999999998 10.448280029296875 0.38549999999999984 Q 10.492530029296875 0.3989999999999998 10.554030029296875 0.41849999999999987 Q 10.653030029296875 0.4484999999999998 10.725030029296875 0.4874999999999998 Q 10.797030029296875 0.5264999999999999 10.836030029296875 0.5872499999999998 Q 10.875030029296875 0.6479999999999999 10.875030029296875 0.7484999999999998 Q 10.875030029296875 0.8444999999999998 10.840530029296875 0.9097499999999998 Q 10.806030029296876 0.9749999999999999 10.747530029296875 1.0139999999999998 Q 10.689030029296875 1.053 10.617030029296876 1.07025 Q 10.545030029296875 1.0875 10.470030029296876 1.0875 Q 10.393530029296874 1.0875 10.310280029296875 1.0717499999999998 Q 10.227030029296875 1.0559999999999998 10.149030029296876 1.0282499999999999 Q 10.071030029296875 1.0005 10.006530029296876 0.9629999999999999 L 10.132530029296875 0.7064999999999999 Q 10.132530029296875 0.7064999999999999 10.162530029296875 0.7244999999999998 Q 10.192530029296876 0.7424999999999998 10.242030029296876 0.7649999999999999 Q 10.291530029296876 0.7874999999999999 10.352280029296875 0.8054999999999999 Q 10.413030029296875 0.8234999999999999 10.474530029296876 0.8234999999999999 Q 10.522530029296876 0.8234999999999999 10.541280029296875 0.8107499999999999 Q 10.560030029296875 0.7979999999999998 10.560030029296875 0.7769999999999999 Q 10.560030029296875 0.7454999999999998 10.527030029296874 0.7282499999999998 Q 10.494030029296875 0.7109999999999999 10.440780029296874 0.6952499999999998 Q 10.387530029296874 0.6794999999999998 10.323030029296875 0.6584999999999999 Q 10.230030029296875 0.6269999999999998 10.170030029296875 0.5872499999999998 Q 10.110030029296874 0.5474999999999999 10.081530029296875 0.4927499999999998 Q 10.053030029296876 0.43799999999999983 10.053030029296876 0.3599999999999999 Q 10.053030029296876 0.24149999999999983 10.108530029296874 0.1619999999999998 Q 10.164030029296875 0.0824999999999998 10.254780029296874 0.04124999999999979 Q 10.345530029296874 -2.220446049250313e-16 10.450530029296875 -2.220446049250313e-16 Q 10.528530029296874 -2.220446049250313e-16 10.601280029296875 0.018749999999999822 Q 10.674030029296874 0.03749999999999987 10.737780029296875 0.06449999999999978 Q 10.801530029296876 0.0914999999999998 10.849530029296876 0.11549999999999983 L 10.723530029296874 0.3569999999999999 M 11.223028564453125 0.008999999999999897 L 11.550028564453125 0.008999999999999897 L 11.889028564453126 1.0739999999999998 L 11.592028564453125 1.0739999999999998 L 11.527528564453124 0.8654999999999998 L 11.244028564453124 0.8654999999999998 L 11.181028564453126 1.0739999999999998 L 10.882528564453125 1.0739999999999998 L 11.223028564453125 0.008999999999999897 M 11.481028564453124 0.6704999999999999 L 11.386528564453124 0.2954999999999999 L 11.287528564453124 0.6704999999999999 L 11.481028564453124 0.6704999999999999 M 12.70951318359375 0.2639999999999998 L 12.40351318359375 0.2639999999999998 L 12.40351318359375 1.0739999999999998 L 12.11101318359375 1.0739999999999998 L 12.11101318359375 0.2639999999999998 L 11.80351318359375 0.2639999999999998 L 11.80351318359375 0.008999999999999897 L 12.70951318359375 0.008999999999999897 L 12.70951318359375 0.2639999999999998 M 12.81604833984375 1.0739999999999998 L 12.81604833984375 0.008999999999999897 L 13.10854833984375 0.008999999999999897 L 13.10854833984375 1.0739999999999998 L 12.81604833984375 1.0739999999999998 M 13.7715732421875 1.0829999999999997 Q 13.6500732421875 1.0829999999999997 13.5510732421875 1.0372499999999998 Q 13.4520732421875 0.9914999999999998 13.3808232421875 0.9142499999999998 Q 13.3095732421875 0.8369999999999999 13.2713232421875 0.7402499999999999 Q 13.2330732421875 0.6434999999999998 13.2330732421875 0.5399999999999998 Q 13.2330732421875 0.4334999999999999 13.2735732421875 0.3374999999999998 Q 13.3140732421875 0.24149999999999983 13.3868232421875 0.16574999999999984 Q 13.4595732421875 0.08999999999999986 13.5593232421875 0.046499999999999764 Q 13.6590732421875 0.0029999999999998916 13.7775732421875 0.0029999999999998916 Q 13.8990732421875 0.0029999999999998916 13.9980732421875 0.04874999999999985 Q 14.0970732421875 0.0944999999999998 14.1675732421875 0.17249999999999988 Q 14.2380732421875 0.25049999999999983 14.2763232421875 0.34724999999999984 Q 14.3145732421875 0.44399999999999984 14.3145732421875 0.5459999999999998 Q 14.3145732421875 0.6509999999999998 14.2748232421875 0.7469999999999999 Q 14.2350732421875 0.8429999999999999 14.162323242187501 0.9187499999999998 Q 14.0895732421875 0.9944999999999998 13.9905732421875 1.0387499999999998 Q 13.8915732421875 1.0829999999999997 13.7715732421875 1.0829999999999997 M 13.5300732421875 0.5429999999999998 Q 13.5300732421875 0.5969999999999998 13.5450732421875 0.6472499999999999 Q 13.5600732421875 0.6974999999999998 13.5900732421875 0.7372499999999998 Q 13.6200732421875 0.7769999999999999 13.6658232421875 0.8002499999999999 Q 13.7115732421875 0.8234999999999999 13.7745732421875 0.8234999999999999 Q 13.8375732421875 0.8234999999999999 13.8840732421875 0.7994999999999999 Q 13.9305732421875 0.7754999999999999 13.9598232421875 0.7342499999999998 Q 13.9890732421875 0.6929999999999998 14.0033232421875 0.6427499999999998 Q 14.0175732421875 0.5924999999999998 14.0175732421875 0.5399999999999998 Q 14.0175732421875 0.4859999999999999 14.0025732421875 0.4364999999999998 Q 13.9875732421875 0.3869999999999998 13.9575732421875 0.34724999999999984 Q 13.9275732421875 0.3074999999999998 13.881073242187501 0.2849999999999998 Q 13.8345732421875 0.26249999999999984 13.7730732421875 0.26249999999999984 Q 13.7100732421875 0.26249999999999984 13.6643232421875 0.28649999999999987 Q 13.6185732421875 0.3104999999999998 13.5885732421875 0.35024999999999984 Q 13.5585732421875 0.3899999999999998 13.5443232421875 0.4402499999999998 Q 13.5300732421875 0.4904999999999998 13.5300732421875 0.5429999999999998 M 14.73159521484375 0.5504999999999999 L 14.73159521484375 1.0739999999999998 L 14.43909521484375 1.0739999999999998 L 14.43909521484375 0.008999999999999897 L 14.66709521484375 0.008999999999999897 L 15.09459521484375 0.5504999999999999 L 15.09459521484375 0.008999999999999897 L 15.38709521484375 0.008999999999999897 L 15.38709521484375 1.0739999999999998 L 15.15459521484375 1.0739999999999998 L 14.73159521484375 0.5504999999999999" fill="#000000" fill-rule="nonzero"></path></g><g><path d=" M 0.49059246826171876 1.5928124999999997 L 0.5348424682617188 1.5928124999999997 L 0.7560924682617187 2.1253124999999997 L 0.7005924682617188 2.1253124999999997 L 0.6315924682617188 1.9588124999999996 L 0.39234246826171876 1.9588124999999996 L 0.3240924682617188 2.1253124999999997 L 0.26784246826171876 2.1253124999999997 L 0.49059246826171876 1.5928124999999997 M 0.6195924682617188 1.9175624999999996 L 0.5123424682617188 1.6543124999999996 L 0.40359246826171874 1.9175624999999996 L 0.6195924682617188 1.9175624999999996 M 0.7778607788085937 1.8553124999999997 Q 0.7778607788085937 1.8065624999999996 0.7947357788085938 1.7596874999999996 Q 0.8116107788085938 1.7128124999999996 0.8438607788085938 1.6741874999999997 Q 0.8761107788085938 1.6355624999999998 0.9233607788085938 1.6126874999999998 Q 0.9706107788085938 1.5898124999999999 1.0306107788085939 1.5898124999999999 Q 1.1018607788085937 1.5898124999999999 1.1524857788085938 1.6224374999999998 Q 1.2031107788085937 1.6550624999999997 1.2271107788085938 1.7060624999999998 L 1.1858607788085938 1.7315624999999997 Q 1.1686107788085938 1.6963124999999997 1.1423607788085937 1.6756874999999998 Q 1.1161107788085938 1.6550624999999997 1.0864857788085938 1.6460624999999998 Q 1.0568607788085937 1.6370624999999996 1.0276107788085938 1.6370624999999996 Q 0.9796107788085937 1.6370624999999996 0.9428607788085938 1.6561874999999997 Q 0.9061107788085938 1.6753124999999998 0.8809857788085937 1.7071874999999996 Q 0.8558607788085938 1.7390624999999997 0.8431107788085938 1.7784374999999997 Q 0.8303607788085937 1.8178124999999996 0.8303607788085937 1.8583124999999998 Q 0.8303607788085937 1.9025624999999997 0.8453607788085937 1.9430624999999997 Q 0.8603607788085937 1.9835624999999997 0.8873607788085938 2.0146874999999995 Q 0.9143607788085938 2.0458125 0.9507357788085937 2.0641874999999996 Q 0.9871107788085938 2.0825625 1.0298607788085938 2.0825625 Q 1.0598607788085936 2.0825625 1.0913607788085937 2.0720625 Q 1.1228607788085938 2.0615624999999995 1.1502357788085937 2.0398124999999996 Q 1.1776107788085937 2.0180624999999996 1.1941107788085938 1.9835624999999997 L 1.2376107788085937 2.0060624999999996 Q 1.2211107788085938 2.0458125 1.1866107788085938 2.0735624999999995 Q 1.1521107788085938 2.1013124999999997 1.1097357788085938 2.1155625 Q 1.0673607788085937 2.1298125 1.0268607788085937 2.1298125 Q 0.9721107788085938 2.1298125 0.9263607788085937 2.1061875 Q 0.8806107788085937 2.0825625 0.8472357788085938 2.0431874999999997 Q 0.8138607788085938 2.0038124999999996 0.7958607788085937 1.9546874999999997 Q 0.7778607788085937 1.9055624999999998 0.7778607788085937 1.8553124999999997 M 1.7040807495117187 1.6393124999999997 L 1.5143307495117186 1.6393124999999997 L 1.5143307495117186 2.1253124999999997 L 1.4618307495117189 2.1253124999999997 L 1.4618307495117189 1.6393124999999997 L 1.2720807495117188 1.6393124999999997 L 1.2720807495117188 1.5928124999999997 L 1.7040807495117187 1.5928124999999997 L 1.7040807495117187 1.6393124999999997 M 1.7835697631835938 2.1253124999999997 L 1.7835697631835938 1.5928124999999997 L 1.8360697631835938 1.5928124999999997 L 1.8360697631835938 2.1253124999999997 L 1.7835697631835938 2.1253124999999997 M 2.1840591430664062 2.1290625 Q 2.1278091430664063 2.1290625 2.0820591430664064 2.1065625 Q 2.0363091430664064 2.0840625 2.003309143066406 2.0454375 Q 1.9703091430664061 2.0068124999999997 1.9523091430664063 1.9584374999999996 Q 1.9343091430664063 1.9100624999999998 1.9343091430664063 1.8590624999999998 Q 1.9343091430664063 1.8058124999999996 1.9530591430664062 1.7574374999999998 Q 1.9718091430664062 1.7090624999999997 2.005934143066406 1.6711874999999998 Q 2.040059143066406 1.6333124999999997 2.085809143066406 1.6111874999999998 Q 2.131559143066406 1.5890624999999998 2.1848091430664063 1.5890624999999998 Q 2.241059143066406 1.5890624999999998 2.286809143066406 1.6123124999999998 Q 2.332559143066406 1.6355624999999998 2.3651841430664065 1.6745624999999997 Q 2.3978091430664064 1.7135624999999997 2.415809143066406 1.7615624999999997 Q 2.4338091430664064 1.8095624999999997 2.4338091430664064 1.8598124999999996 Q 2.4338091430664064 1.9130624999999997 2.415059143066406 1.9614374999999997 Q 2.3963091430664063 2.0098125 2.3625591430664064 2.0476875 Q 2.3288091430664064 2.0855624999999995 2.2830591430664064 2.1073125 Q 2.2373091430664065 2.1290625 2.1840591430664062 2.1290625 M 1.9868091430664063 1.8590624999999998 Q 1.9868091430664063 1.9025624999999997 2.0010591430664064 1.9426874999999997 Q 2.015309143066406 1.9828124999999996 2.041559143066406 2.0139375 Q 2.0678091430664063 2.0450625 2.1041841430664063 2.0634374999999996 Q 2.1405591430664064 2.0818125 2.1840591430664062 2.0818125 Q 2.229809143066406 2.0818125 2.2661841430664063 2.0626874999999996 Q 2.3025591430664063 2.0435624999999997 2.3284341430664064 2.0116875 Q 2.3543091430664065 1.9798124999999998 2.367809143066406 1.9400624999999998 Q 2.381309143066406 1.9003124999999996 2.381309143066406 1.8590624999999998 Q 2.381309143066406 1.8155624999999997 2.367059143066406 1.7758124999999998 Q 2.3528091430664064 1.7360624999999996 2.3261841430664063 1.7045624999999998 Q 2.299559143066406 1.6730624999999997 2.263559143066406 1.6550624999999997 Q 2.227559143066406 1.6370624999999996 2.1840591430664062 1.6370624999999996 Q 2.1390591430664063 1.6370624999999996 2.1026841430664063 1.6558124999999997 Q 2.0663091430664062 1.6745624999999997 2.040434143066406 1.7064374999999998 Q 2.014559143066406 1.7383124999999997 2.0006841430664064 1.7780624999999997 Q 1.9868091430664063 1.8178124999999996 1.9868091430664063 1.8590624999999998 M 2.5852915649414063 1.6895624999999996 L 2.5852915649414063 2.1253124999999997 L 2.532791564941406 2.1253124999999997 L 2.532791564941406 1.5928124999999997 L 2.5762915649414064 1.5928124999999997 L 2.9257915649414064 2.0368125 L 2.9257915649414064 1.5935624999999995 L 2.978291564941406 1.5935624999999995 L 2.978291564941406 2.1253124999999997 L 2.929541564941406 2.1253124999999997 L 2.5852915649414063 1.6895624999999996 M 3.4230210571289064 1.6925624999999997 Q 3.4117710571289064 1.6798124999999997 3.3967710571289063 1.6696874999999998 Q 3.381771057128906 1.6595624999999998 3.3630210571289063 1.6520624999999998 Q 3.344271057128906 1.6445624999999997 3.322896057128906 1.6400624999999998 Q 3.301521057128906 1.6355624999999998 3.277521057128906 1.6355624999999998 Q 3.207771057128906 1.6355624999999998 3.1751460571289063 1.6621874999999997 Q 3.1425210571289064 1.6888124999999996 3.1425210571289064 1.7345624999999998 Q 3.1425210571289064 1.7660624999999996 3.157896057128906 1.7840624999999997 Q 3.1732710571289062 1.8020624999999997 3.206271057128906 1.8133124999999997 Q 3.239271057128906 1.8245624999999996 3.290271057128906 1.8365624999999997 Q 3.347271057128906 1.8485624999999997 3.3885210571289064 1.8650624999999996 Q 3.429771057128906 1.8815624999999998 3.452271057128906 1.9096874999999998 Q 3.474771057128906 1.9378124999999997 3.474771057128906 1.9858124999999998 Q 3.474771057128906 2.0225625 3.4605210571289065 2.0495624999999995 Q 3.4462710571289064 2.0765624999999996 3.4207710571289063 2.0945625 Q 3.395271057128906 2.1125624999999997 3.360021057128906 2.1211874999999996 Q 3.324771057128906 2.1298125 3.2827710571289064 2.1298125 Q 3.241521057128906 2.1298125 3.203646057128906 2.1211874999999996 Q 3.1657710571289064 2.1125624999999997 3.1320210571289064 2.0956875 Q 3.098271057128906 2.0788124999999997 3.0690210571289063 2.0525624999999996 L 3.0952710571289064 2.0098125 Q 3.109521057128906 2.0248125 3.1293960571289063 2.0379374999999995 Q 3.149271057128906 2.0510624999999996 3.1736460571289062 2.0615624999999995 Q 3.1980210571289063 2.0720625 3.2261460571289065 2.0776874999999997 Q 3.254271057128906 2.0833125 3.2842710571289064 2.0833125 Q 3.348021057128906 2.0833125 3.383646057128906 2.0600625 Q 3.419271057128906 2.0368125 3.419271057128906 1.9910624999999997 Q 3.419271057128906 1.9580624999999996 3.4012710571289064 1.9381874999999997 Q 3.383271057128906 1.9183124999999996 3.347271057128906 1.9055624999999998 Q 3.311271057128906 1.8928124999999998 3.2587710571289064 1.8808124999999998 Q 3.203271057128906 1.8680624999999997 3.1650210571289064 1.8523124999999996 Q 3.1267710571289062 1.8365624999999997 3.1076460571289064 1.8106874999999998 Q 3.088521057128906 1.7848124999999997 3.088521057128906 1.7420624999999996 Q 3.088521057128906 1.6925624999999997 3.112896057128906 1.6584374999999998 Q 3.137271057128906 1.6243124999999998 3.180021057128906 1.6066874999999996 Q 3.2227710571289063 1.5890624999999998 3.278271057128906 1.5890624999999998 Q 3.313521057128906 1.5890624999999998 3.343896057128906 1.5961874999999996 Q 3.3742710571289063 1.6033124999999997 3.4001460571289064 1.6168124999999995 Q 3.4260210571289065 1.6303124999999996 3.4485210571289064 1.6505624999999997 L 3.4230210571289064 1.6925624999999997 M 3.7582706909179686 2.1253124999999997 L 3.7582706909179686 1.5928124999999997 L 3.978770690917969 1.5928124999999997 Q 4.0132706909179685 1.5928124999999997 4.042145690917969 1.6070624999999996 Q 4.071020690917969 1.6213124999999997 4.092020690917969 1.6456874999999997 Q 4.113020690917969 1.6700624999999998 4.125020690917969 1.6996874999999996 Q 4.137020690917969 1.7293124999999998 4.137020690917969 1.7600624999999996 Q 4.137020690917969 1.8035624999999997 4.117895690917969 1.8421874999999996 Q 4.098770690917969 1.8808124999999998 4.064270690917969 1.9048124999999998 Q 4.029770690917969 1.9288124999999998 3.9832706909179687 1.9288124999999998 L 3.810770690917969 1.9288124999999998 L 3.810770690917969 2.1253124999999997 L 3.7582706909179686 2.1253124999999997 M 3.810770690917969 1.8823124999999998 L 3.9810206909179686 1.8823124999999998 Q 4.0125206909179685 1.8823124999999998 4.0357706909179685 1.8650624999999996 Q 4.0590206909179685 1.8478124999999996 4.071770690917969 1.8200624999999997 Q 4.0845206909179685 1.7923124999999998 4.0845206909179685 1.7600624999999996 Q 4.0845206909179685 1.7270624999999997 4.069520690917969 1.6993124999999998 Q 4.054520690917968 1.6715624999999998 4.030145690917969 1.6554374999999997 Q 4.005770690917969 1.6393124999999997 3.976520690917969 1.6393124999999997 L 3.810770690917969 1.6393124999999997 L 3.810770690917969 1.8823124999999998 M 4.439277648925781 2.1290625 Q 4.383027648925781 2.1290625 4.337277648925781 2.1065625 Q 4.291527648925781 2.0840625 4.2585276489257815 2.0454375 Q 4.225527648925781 2.0068124999999997 4.207527648925781 1.9584374999999996 Q 4.1895276489257816 1.9100624999999998 4.1895276489257816 1.8590624999999998 Q 4.1895276489257816 1.8058124999999996 4.208277648925781 1.7574374999999998 Q 4.227027648925781 1.7090624999999997 4.261152648925782 1.6711874999999998 Q 4.295277648925781 1.6333124999999997 4.341027648925781 1.6111874999999998 Q 4.386777648925781 1.5890624999999998 4.440027648925781 1.5890624999999998 Q 4.496277648925782 1.5890624999999998 4.542027648925782 1.6123124999999998 Q 4.5877776489257815 1.6355624999999998 4.620402648925781 1.6745624999999997 Q 4.653027648925781 1.7135624999999997 4.671027648925781 1.7615624999999997 Q 4.689027648925781 1.8095624999999997 4.689027648925781 1.8598124999999996 Q 4.689027648925781 1.9130624999999997 4.670277648925781 1.9614374999999997 Q 4.651527648925781 2.0098125 4.617777648925781 2.0476875 Q 4.584027648925781 2.0855624999999995 4.5382776489257814 2.1073125 Q 4.4925276489257815 2.1290625 4.439277648925781 2.1290625 M 4.242027648925781 1.8590624999999998 Q 4.242027648925781 1.9025624999999997 4.256277648925781 1.9426874999999997 Q 4.270527648925781 1.9828124999999996 4.296777648925781 2.0139375 Q 4.323027648925781 2.0450625 4.359402648925781 2.0634374999999996 Q 4.395777648925781 2.0818125 4.439277648925781 2.0818125 Q 4.485027648925781 2.0818125 4.521402648925781 2.0626874999999996 Q 4.557777648925781 2.0435624999999997 4.583652648925781 2.0116875 Q 4.6095276489257815 1.9798124999999998 4.623027648925781 1.9400624999999998 Q 4.636527648925782 1.9003124999999996 4.636527648925782 1.8590624999999998 Q 4.636527648925782 1.8155624999999997 4.622277648925781 1.7758124999999998 Q 4.608027648925781 1.7360624999999996 4.581402648925781 1.7045624999999998 Q 4.554777648925781 1.6730624999999997 4.518777648925782 1.6550624999999997 Q 4.482777648925781 1.6370624999999996 4.439277648925781 1.6370624999999996 Q 4.394277648925781 1.6370624999999996 4.357902648925781 1.6558124999999997 Q 4.321527648925781 1.6745624999999997 4.295652648925781 1.7064374999999998 Q 4.269777648925781 1.7383124999999997 4.255902648925781 1.7780624999999997 Q 4.242027648925781 1.8178124999999996 4.242027648925781 1.8590624999999998 M 5.004760070800781 2.1290625 Q 4.941760070800782 2.1290625 4.898260070800781 2.1065625 Q 4.854760070800781 2.0840625 4.829260070800781 2.0461875 Q 4.803760070800781 2.0083124999999997 4.792135070800781 1.9603124999999997 Q 4.780510070800781 1.9123124999999996 4.780510070800781 1.8613124999999997 L 4.780510070800781 1.5928124999999997 L 4.832260070800781 1.5928124999999997 L 4.832260070800781 1.8613124999999997 Q 4.832260070800781 1.9025624999999997 4.840885070800781 1.9423124999999997 Q 4.849510070800782 1.9820624999999996 4.8690100708007815 2.0135625 Q 4.888510070800781 2.0450625 4.921510070800781 2.0634374999999996 Q 4.954510070800781 2.0818125 5.004010070800781 2.0818125 Q 5.0550100708007815 2.0818125 5.088385070800781 2.0626874999999996 Q 5.121760070800781 2.0435624999999997 5.140885070800781 2.0120625 Q 5.160010070800781 1.9805624999999998 5.168260070800781 1.9411874999999996 Q 5.176510070800782 1.9018124999999997 5.176510070800782 1.8613124999999997 L 5.176510070800782 1.5928124999999997 L 5.229010070800781 1.5928124999999997 L 5.229010070800781 1.8613124999999997 Q 5.229010070800781 1.9145624999999997 5.217010070800781 1.9633124999999998 Q 5.205010070800781 2.0120625 5.178385070800781 2.0488125 Q 5.151760070800782 2.0855624999999995 5.109010070800781 2.1073125 Q 5.066260070800781 2.1290625 5.004760070800781 2.1290625 M 5.354263732910156 2.1253124999999997 L 5.354263732910156 1.5928124999999997 L 5.579263732910157 1.5928124999999997 Q 5.613763732910156 1.5928124999999997 5.642263732910156 1.6070624999999996 Q 5.670763732910157 1.6213124999999997 5.6921387329101565 1.6456874999999997 Q 5.713513732910156 1.6700624999999998 5.725138732910156 1.6996874999999996 Q 5.736763732910156 1.7293124999999998 5.736763732910156 1.7600624999999996 Q 5.736763732910156 1.7983124999999998 5.722138732910156 1.8320624999999997 Q 5.707513732910156 1.8658124999999997 5.680888732910156 1.8890624999999996 Q 5.654263732910156 1.9123124999999996 5.618263732910156 1.9198124999999997 L 5.748763732910156 2.1253124999999997 L 5.689513732910156 2.1253124999999997 L 5.564263732910156 1.9288124999999998 L 5.406763732910156 1.9288124999999998 L 5.406763732910156 2.1253124999999997 L 5.354263732910156 2.1253124999999997 M 5.406763732910156 1.8823124999999998 L 5.580763732910157 1.8823124999999998 Q 5.612263732910156 1.8823124999999998 5.635513732910156 1.8650624999999996 Q 5.658763732910156 1.8478124999999996 5.671513732910157 1.8196874999999997 Q 5.684263732910156 1.7915624999999997 5.684263732910156 1.7600624999999996 Q 5.684263732910156 1.7278124999999998 5.6696387329101565 1.7004374999999996 Q 5.655013732910156 1.6730624999999997 5.630638732910156 1.6561874999999997 Q 5.606263732910156 1.6393124999999997 5.5762637329101565 1.6393124999999997 L 5.406763732910156 1.6393124999999997 L 5.406763732910156 1.8823124999999998 M 6.252028747558594 2.1290625 Q 6.189028747558594 2.1290625 6.145528747558593 2.1065625 Q 6.1020287475585935 2.0840625 6.076528747558593 2.0461875 Q 6.051028747558593 2.0083124999999997 6.039403747558594 1.9603124999999997 Q 6.027778747558593 1.9123124999999996 6.027778747558593 1.8613124999999997 L 6.027778747558593 1.5928124999999997 L 6.0795287475585935 1.5928124999999997 L 6.0795287475585935 1.8613124999999997 Q 6.0795287475585935 1.9025624999999997 6.088153747558594 1.9423124999999997 Q 6.096778747558594 1.9820624999999996 6.116278747558594 2.0135625 Q 6.135778747558594 2.0450625 6.168778747558593 2.0634374999999996 Q 6.201778747558594 2.0818125 6.251278747558594 2.0818125 Q 6.302278747558594 2.0818125 6.3356537475585935 2.0626874999999996 Q 6.369028747558594 2.0435624999999997 6.388153747558594 2.0120625 Q 6.4072787475585935 1.9805624999999998 6.415528747558594 1.9411874999999996 Q 6.423778747558594 1.9018124999999997 6.423778747558594 1.8613124999999997 L 6.423778747558594 1.5928124999999997 L 6.4762787475585935 1.5928124999999997 L 6.4762787475585935 1.8613124999999997 Q 6.4762787475585935 1.9145624999999997 6.464278747558594 1.9633124999999998 Q 6.452278747558593 2.0120625 6.425653747558593 2.0488125 Q 6.399028747558594 2.0855624999999995 6.356278747558593 2.1073125 Q 6.3135287475585935 2.1290625 6.252028747558594 2.1290625 M 6.654032409667969 1.6895624999999996 L 6.654032409667969 2.1253124999999997 L 6.601532409667969 2.1253124999999997 L 6.601532409667969 1.5928124999999997 L 6.6450324096679685 1.5928124999999997 L 6.994532409667968 2.0368125 L 6.994532409667968 1.5935624999999995 L 7.047032409667969 1.5935624999999995 L 7.047032409667969 2.1253124999999997 L 6.9982824096679686 2.1253124999999997 L 6.654032409667969 1.6895624999999996 M 7.513511169433594 1.5928124999999997 L 7.5577611694335936 1.5928124999999997 L 7.779011169433594 2.1253124999999997 L 7.723511169433594 2.1253124999999997 L 7.654511169433594 1.9588124999999996 L 7.4152611694335935 1.9588124999999996 L 7.347011169433594 2.1253124999999997 L 7.290761169433594 2.1253124999999997 L 7.513511169433594 1.5928124999999997 M 7.642511169433594 1.9175624999999996 L 7.535261169433594 1.6543124999999996 L 7.426511169433594 1.9175624999999996 L 7.642511169433594 1.9175624999999996 M 7.809014465332031 1.5928124999999997 L 7.999514465332031 2.0600625 L 8.189264465332032 1.5928124999999997 L 8.24401446533203 1.5928124999999997 L 8.023514465332031 2.1253124999999997 L 7.975514465332031 2.1253124999999997 L 7.754264465332032 1.5928124999999997 L 7.809014465332031 1.5928124999999997 M 8.678276550292969 2.0788124999999997 L 8.678276550292969 2.1253124999999997 L 8.32052655029297 2.1253124999999997 L 8.32052655029297 1.5928124999999997 L 8.671526550292969 1.5928124999999997 L 8.671526550292969 1.6393124999999997 L 8.373026550292968 1.6393124999999997 L 8.373026550292968 1.8313124999999997 L 8.633276550292969 1.8313124999999997 L 8.633276550292969 1.8755624999999998 L 8.373026550292968 1.8755624999999998 L 8.373026550292968 2.0788124999999997 L 8.678276550292969 2.0788124999999997 M 8.829783142089843 1.6895624999999996 L 8.829783142089843 2.1253124999999997 L 8.777283142089845 2.1253124999999997 L 8.777283142089845 1.5928124999999997 L 8.820783142089844 1.5928124999999997 L 9.170283142089843 2.0368125 L 9.170283142089843 1.5935624999999995 L 9.222783142089844 1.5935624999999995 L 9.222783142089844 2.1253124999999997 L 9.174033142089844 2.1253124999999997 L 8.829783142089843 1.6895624999999996 M 9.356262634277345 2.1253124999999997 L 9.356262634277345 1.5928124999999997 L 9.408762634277343 1.5928124999999997 L 9.408762634277343 2.1253124999999997 L 9.356262634277345 2.1253124999999997 M 9.542252014160157 2.1253124999999997 L 9.542252014160157 1.5928124999999997 L 9.767252014160157 1.5928124999999997 Q 9.801752014160156 1.5928124999999997 9.830252014160155 1.6070624999999996 Q 9.858752014160157 1.6213124999999997 9.880127014160156 1.6456874999999997 Q 9.901502014160156 1.6700624999999998 9.913127014160157 1.6996874999999996 Q 9.924752014160156 1.7293124999999998 9.924752014160156 1.7600624999999996 Q 9.924752014160156 1.7983124999999998 9.910127014160157 1.8320624999999997 Q 9.895502014160156 1.8658124999999997 9.868877014160157 1.8890624999999996 Q 9.842252014160156 1.9123124999999996 9.806252014160156 1.9198124999999997 L 9.936752014160156 2.1253124999999997 L 9.877502014160155 2.1253124999999997 L 9.752252014160156 1.9288124999999998 L 9.594752014160155 1.9288124999999998 L 9.594752014160155 2.1253124999999997 L 9.542252014160157 2.1253124999999997 M 9.594752014160155 1.8823124999999998 L 9.768752014160157 1.8823124999999998 Q 9.800252014160156 1.8823124999999998 9.823502014160157 1.8650624999999996 Q 9.846752014160156 1.8478124999999996 9.859502014160157 1.8196874999999997 Q 9.872252014160157 1.7915624999999997 9.872252014160157 1.7600624999999996 Q 9.872252014160157 1.7278124999999998 9.857627014160157 1.7004374999999996 Q 9.843002014160156 1.6730624999999997 9.818627014160157 1.6561874999999997 Q 9.794252014160156 1.6393124999999997 9.764252014160157 1.6393124999999997 L 9.594752014160155 1.6393124999999997 L 9.594752014160155 1.8823124999999998 M 10.579523254394532 1.6393124999999997 L 10.389773254394532 1.6393124999999997 L 10.389773254394532 2.1253124999999997 L 10.337273254394532 2.1253124999999997 L 10.337273254394532 1.6393124999999997 L 10.147523254394532 1.6393124999999997 L 10.147523254394532 1.5928124999999997 L 10.579523254394532 1.5928124999999997 L 10.579523254394532 1.6393124999999997 M 10.659012268066407 2.1253124999999997 L 10.659012268066407 1.5928124999999997 L 10.884012268066407 1.5928124999999997 Q 10.918512268066406 1.5928124999999997 10.947012268066405 1.6070624999999996 Q 10.975512268066407 1.6213124999999997 10.996887268066406 1.6456874999999997 Q 11.018262268066406 1.6700624999999998 11.029887268066407 1.6996874999999996 Q 11.041512268066406 1.7293124999999998 11.041512268066406 1.7600624999999996 Q 11.041512268066406 1.7983124999999998 11.026887268066407 1.8320624999999997 Q 11.012262268066406 1.8658124999999997 10.985637268066407 1.8890624999999996 Q 10.959012268066406 1.9123124999999996 10.923012268066406 1.9198124999999997 L 11.053512268066406 2.1253124999999997 L 10.994262268066405 2.1253124999999997 L 10.869012268066406 1.9288124999999998 L 10.711512268066405 1.9288124999999998 L 10.711512268066405 2.1253124999999997 L 10.659012268066407 2.1253124999999997 M 10.711512268066405 1.8823124999999998 L 10.885512268066407 1.8823124999999998 Q 10.917012268066406 1.8823124999999998 10.940262268066407 1.8650624999999996 Q 10.963512268066406 1.8478124999999996 10.976262268066407 1.8196874999999997 Q 10.989012268066407 1.7915624999999997 10.989012268066407 1.7600624999999996 Q 10.989012268066407 1.7278124999999998 10.974387268066407 1.7004374999999996 Q 10.959762268066406 1.6730624999999997 10.935387268066407 1.6561874999999997 Q 10.911012268066406 1.6393124999999997 10.881012268066407 1.6393124999999997 L 10.711512268066405 1.6393124999999997 L 10.711512268066405 1.8823124999999998 M 11.311530578613281 1.5928124999999997 L 11.355780578613281 1.5928124999999997 L 11.57703057861328 2.1253124999999997 L 11.521530578613282 2.1253124999999997 L 11.452530578613281 1.9588124999999996 L 11.213280578613281 1.9588124999999996 L 11.145030578613282 2.1253124999999997 L 11.088780578613282 2.1253124999999997 L 11.311530578613281 1.5928124999999997 M 11.44053057861328 1.9175624999999996 L 11.333280578613282 1.6543124999999996 L 11.224530578613281 1.9175624999999996 L 11.44053057861328 1.9175624999999996 M 11.70604962158203 1.6895624999999996 L 11.70604962158203 2.1253124999999997 L 11.653549621582032 2.1253124999999997 L 11.653549621582032 1.5928124999999997 L 11.697049621582032 1.5928124999999997 L 12.046549621582031 2.0368125 L 12.046549621582031 1.5935624999999995 L 12.099049621582031 1.5935624999999995 L 12.099049621582031 2.1253124999999997 L 12.050299621582031 2.1253124999999997 L 11.70604962158203 1.6895624999999996 M 12.543779113769531 1.6925624999999997 Q 12.532529113769531 1.6798124999999997 12.51752911376953 1.6696874999999998 Q 12.502529113769532 1.6595624999999998 12.48377911376953 1.6520624999999998 Q 12.465029113769532 1.6445624999999997 12.443654113769531 1.6400624999999998 Q 12.422279113769532 1.6355624999999998 12.398279113769531 1.6355624999999998 Q 12.328529113769532 1.6355624999999998 12.29590411376953 1.6621874999999997 Q 12.263279113769531 1.6888124999999996 12.263279113769531 1.7345624999999998 Q 12.263279113769531 1.7660624999999996 12.278654113769532 1.7840624999999997 Q 12.29402911376953 1.8020624999999997 12.327029113769532 1.8133124999999997 Q 12.360029113769532 1.8245624999999996 12.411029113769532 1.8365624999999997 Q 12.468029113769532 1.8485624999999997 12.509279113769532 1.8650624999999996 Q 12.550529113769532 1.8815624999999998 12.57302911376953 1.9096874999999998 Q 12.595529113769532 1.9378124999999997 12.595529113769532 1.9858124999999998 Q 12.595529113769532 2.0225625 12.581279113769531 2.0495624999999995 Q 12.56702911376953 2.0765624999999996 12.541529113769531 2.0945625 Q 12.516029113769532 2.1125624999999997 12.48077911376953 2.1211874999999996 Q 12.445529113769531 2.1298125 12.403529113769531 2.1298125 Q 12.362279113769532 2.1298125 12.324404113769532 2.1211874999999996 Q 12.28652911376953 2.1125624999999997 12.252779113769531 2.0956875 Q 12.219029113769531 2.0788124999999997 12.18977911376953 2.0525624999999996 L 12.216029113769531 2.0098125 Q 12.230279113769532 2.0248125 12.250154113769531 2.0379374999999995 Q 12.270029113769532 2.0510624999999996 12.29440411376953 2.0615624999999995 Q 12.318779113769532 2.0720625 12.346904113769531 2.0776874999999997 Q 12.375029113769532 2.0833125 12.405029113769531 2.0833125 Q 12.468779113769532 2.0833125 12.504404113769532 2.0600625 Q 12.540029113769531 2.0368125 12.540029113769531 1.9910624999999997 Q 12.540029113769531 1.9580624999999996 12.52202911376953 1.9381874999999997 Q 12.504029113769532 1.9183124999999996 12.468029113769532 1.9055624999999998 Q 12.43202911376953 1.8928124999999998 12.37952911376953 1.8808124999999998 Q 12.324029113769532 1.8680624999999997 12.28577911376953 1.8523124999999996 Q 12.24752911376953 1.8365624999999997 12.228404113769532 1.8106874999999998 Q 12.209279113769531 1.7848124999999997 12.209279113769531 1.7420624999999996 Q 12.209279113769531 1.6925624999999997 12.233654113769532 1.6584374999999998 Q 12.258029113769531 1.6243124999999998 12.300779113769531 1.6066874999999996 Q 12.34352911376953 1.5890624999999998 12.399029113769531 1.5890624999999998 Q 12.43427911376953 1.5890624999999998 12.464654113769532 1.5961874999999996 Q 12.495029113769531 1.6033124999999997 12.52090411376953 1.6168124999999995 Q 12.546779113769531 1.6303124999999996 12.56927911376953 1.6505624999999997 L 12.543779113769531 1.6925624999999997 M 12.68777508544922 2.1253124999999997 L 12.68777508544922 1.5928124999999997 L 13.037275085449219 1.5928124999999997 L 13.037275085449219 1.6393124999999997 L 12.740275085449218 1.6393124999999997 L 12.740275085449218 1.8350624999999998 L 12.990775085449219 1.8350624999999998 L 12.990775085449219 1.8785624999999997 L 12.740275085449218 1.8785624999999997 L 12.740275085449218 2.1253124999999997 L 12.68777508544922 2.1253124999999997 M 13.333534240722656 2.1290625 Q 13.277284240722656 2.1290625 13.231534240722656 2.1065625 Q 13.185784240722656 2.0840625 13.152784240722657 2.0454375 Q 13.119784240722657 2.0068124999999997 13.101784240722656 1.9584374999999996 Q 13.083784240722656 1.9100624999999998 13.083784240722656 1.8590624999999998 Q 13.083784240722656 1.8058124999999996 13.102534240722656 1.7574374999999998 Q 13.121284240722657 1.7090624999999997 13.155409240722657 1.6711874999999998 Q 13.189534240722656 1.6333124999999997 13.235284240722656 1.6111874999999998 Q 13.281034240722656 1.5890624999999998 13.334284240722656 1.5890624999999998 Q 13.390534240722657 1.5890624999999998 13.436284240722657 1.6123124999999998 Q 13.482034240722657 1.6355624999999998 13.514659240722656 1.6745624999999997 Q 13.547284240722655 1.7135624999999997 13.565284240722656 1.7615624999999997 Q 13.583284240722657 1.8095624999999997 13.583284240722657 1.8598124999999996 Q 13.583284240722657 1.9130624999999997 13.564534240722656 1.9614374999999997 Q 13.545784240722655 2.0098125 13.512034240722656 2.0476875 Q 13.478284240722656 2.0855624999999995 13.432534240722656 2.1073125 Q 13.386784240722656 2.1290625 13.333534240722656 2.1290625 M 13.136284240722656 1.8590624999999998 Q 13.136284240722656 1.9025624999999997 13.150534240722656 1.9426874999999997 Q 13.164784240722657 1.9828124999999996 13.191034240722656 2.0139375 Q 13.217284240722655 2.0450625 13.253659240722657 2.0634374999999996 Q 13.290034240722656 2.0818125 13.333534240722656 2.0818125 Q 13.379284240722656 2.0818125 13.415659240722656 2.0626874999999996 Q 13.452034240722655 2.0435624999999997 13.477909240722656 2.0116875 Q 13.503784240722656 1.9798124999999998 13.517284240722656 1.9400624999999998 Q 13.530784240722657 1.9003124999999996 13.530784240722657 1.8590624999999998 Q 13.530784240722657 1.8155624999999997 13.516534240722656 1.7758124999999998 Q 13.502284240722656 1.7360624999999996 13.475659240722656 1.7045624999999998 Q 13.449034240722657 1.6730624999999997 13.413034240722656 1.6550624999999997 Q 13.377034240722656 1.6370624999999996 13.333534240722656 1.6370624999999996 Q 13.288534240722656 1.6370624999999996 13.252159240722657 1.6558124999999997 Q 13.215784240722657 1.6745624999999997 13.189909240722656 1.7064374999999998 Q 13.164034240722657 1.7383124999999997 13.150159240722656 1.7780624999999997 Q 13.136284240722656 1.8178124999999996 13.136284240722656 1.8590624999999998 M 13.682266662597657 2.1253124999999997 L 13.682266662597657 1.5928124999999997 L 13.907266662597657 1.5928124999999997 Q 13.941766662597656 1.5928124999999997 13.970266662597655 1.6070624999999996 Q 13.998766662597657 1.6213124999999997 14.020141662597656 1.6456874999999997 Q 14.041516662597656 1.6700624999999998 14.053141662597657 1.6996874999999996 Q 14.064766662597656 1.7293124999999998 14.064766662597656 1.7600624999999996 Q 14.064766662597656 1.7983124999999998 14.050141662597657 1.8320624999999997 Q 14.035516662597656 1.8658124999999997 14.008891662597657 1.8890624999999996 Q 13.982266662597656 1.9123124999999996 13.946266662597656 1.9198124999999997 L 14.076766662597656 2.1253124999999997 L 14.017516662597655 2.1253124999999997 L 13.892266662597656 1.9288124999999998 L 13.734766662597655 1.9288124999999998 L 13.734766662597655 2.1253124999999997 L 13.682266662597657 2.1253124999999997 M 13.734766662597655 1.8823124999999998 L 13.908766662597657 1.8823124999999998 Q 13.940266662597656 1.8823124999999998 13.963516662597657 1.8650624999999996 Q 13.986766662597656 1.8478124999999996 13.999516662597657 1.8196874999999997 Q 14.012266662597657 1.7915624999999997 14.012266662597657 1.7600624999999996 Q 14.012266662597657 1.7278124999999998 13.997641662597657 1.7004374999999996 Q 13.983016662597656 1.6730624999999997 13.958641662597657 1.6561874999999997 Q 13.934266662597656 1.6393124999999997 13.904266662597657 1.6393124999999997 L 13.734766662597655 1.6393124999999997 L 13.734766662597655 1.8823124999999998 M 14.643778015136718 2.1253124999999997 L 14.643778015136718 1.6918124999999997 L 14.45102801513672 2.0285624999999996 L 14.418028015136718 2.0285624999999996 L 14.224528015136718 1.6918124999999997 L 14.224528015136718 2.1253124999999997 L 14.17202801513672 2.1253124999999997 L 14.17202801513672 1.5928124999999997 L 14.226028015136718 1.5928124999999997 L 14.433778015136719 1.9573124999999998 L 14.64302801513672 1.5928124999999997 L 14.696278015136718 1.5928124999999997 L 14.696278015136718 2.1253124999999997 L 14.643778015136718 2.1253124999999997 M 15.187538635253906 2.0788124999999997 L 15.187538635253906 2.1253124999999997 L 14.829788635253907 2.1253124999999997 L 14.829788635253907 1.5928124999999997 L 15.180788635253906 1.5928124999999997 L 15.180788635253906 1.6393124999999997 L 14.882288635253905 1.6393124999999997 L 14.882288635253905 1.8313124999999997 L 15.142538635253906 1.8313124999999997 L 15.142538635253906 1.8755624999999998 L 14.882288635253905 1.8755624999999998 L 14.882288635253905 2.0788124999999997 L 15.187538635253906 2.0788124999999997 M 15.033038635253906 1.5200624999999997 L 14.999288635253906 1.5073124999999998 L 15.043538635253906 1.4375624999999999 L 15.097538635253906 1.4375624999999999 L 15.033038635253906 1.5200624999999997" fill="#000000" fill-rule="nonzero"></path></g><g clip-path="url(#SvgjsClipPath1068)"><g clip-path="url(#b7dddd783-f736-4be6-807e-f6c3357466ee487aa9a9-70ea-4302-99c5-5c51c1968d1d)"><path d=" M 1.0368721175982296 -0.2586309945014378 L 1.0368721175982296 -6.788800334312579 C 1.0368721175982296 -8.638299156048435 1.6171352479287642 -10.137283701087165 2.777182008895309 -11.285753969428772 C 3.9377082695563783 -12.43463523750854 5.591708215839118 -13.146623783920486 7.739318847656249 -13.422199108359127 L 7.739318847656249 -10.458753996287403 C 6.694352013375491 -10.22900514265399 5.944756990921584 -9.84985788419814 5.490944780032693 -9.321586220745292 C 5.037132569143803 -8.793314557292444 4.810329213633899 -8.035088540337103 4.810329213633899 -7.047113669748354 L 7.739318847656249 -7.047113669748354 L 7.739318847656249 -0.2586309945014378 Z" fill="#51a8db" transform="matrix(1,0,0,1,0,0)" fill-rule="nonzero"></path></g><g clip-path="url(#b7dddd783-f736-4be6-807e-f6c3357466ee487aa9a9-70ea-4302-99c5-5c51c1968d1d)"><path d=" M 14.441765577714268 -13.413568113857693 L 14.441765577714268 -6.88339877404655 C 14.441765577714268 -5.033899952310694 13.861502447383735 -3.5349154072719635 12.701455686417187 -2.386445138930359 C 11.540929425756119 -1.2375638708505896 9.88692947947338 -0.5255753244386447 7.739318847656249 -0.2500000000000018 L 7.739318847656249 -3.213445112071728 C 8.784285681937007 -3.443193965705138 9.533880704390914 -3.822341224160988 9.987692915279805 -4.350612887613837 C 10.441505126168696 -4.878884551066685 10.668308481678597 -5.637110568022026 10.668308481678597 -6.625085438610776 L 7.739318847656249 -6.625085438610776 L 7.739318847656249 -13.413568113857693 Z" fill="#000000" transform="matrix(1,0,0,1,0,0)" fill-rule="nonzero"></path></g></g></g><defs><clipPath id="SvgjsClipPath1068"><path d=" M 1.0368721175982296 -13.422199108359127 h 13.40489346011604 v 13.172199108359127 h -13.40489346011604 Z"></path></clipPath><clipPath id="b7dddd783-f736-4be6-807e-f6c3357466ee487aa9a9-70ea-4302-99c5-5c51c1968d1d"><path d=" M 0.9683721612376424 -13.490767564676073 L 14.510265534074858 -13.490767564676073 L 14.510265534074858 -0.1814315436830558 L 0.9683721612376424 -0.1814315436830558 Z"></path></clipPath></defs></svg>